<svg version="1.1" xmlns="http://www.w3.org/2000/svg" viewBox="91.3 132 1017.43 936">
 <path d="m1072.7 226.55h-135.37c2.7656-32.531 3.2344-53.859 3.375-57.844 0.23438-9.7031-3.4688-18.938-10.312-25.922-6.8438-6.9375-16.078-10.781-25.688-10.781h-609.24c-9.7031 0-18.938 3.8438-25.688 10.781-6.7031 6.9375-10.453 16.219-10.312 25.922 0 3.9375 0.60938 25.312 3.375 57.844h-135.37c-19.547 0-35.391 15.469-36 35.062-3.9375 145.45 65.766 427.78 357.84 455.39 27.375 24 58.547 43.078 94.312 55.219 18.234 6.1406 37.312 9.2344 56.391 9.2344s38.297-3.1406 56.391-9.2344c35.766-12.141 66.938-31.219 94.312-55.219 292.08-27.609 361.78-309.94 357.84-455.39-0.46875-19.453-16.453-35.062-36-35.062zm-908.29 72h106.31c13.312 96.234 42.375 227.53 105.23 329.76-173.86-60.469-205.92-250.31-211.55-329.76zm837.24 150.24c-36.141 91.219-95.766 151.22-177.71 179.53 62.859-102.23 91.922-233.53 105.23-329.76h106.08c-2.7656 35.297-10.688 92.531-33.609 150.24z" fill="#193c37"/>
 <path d="m396 1032c0 19.922 16.078 36 36 36h336c19.922 0 36-16.078 36-36v-108h-408z" fill="#193c37"/>
 <path d="m711.61 787.45c-13.781 7.3125-28.312 13.688-43.688 18.844-21.844 7.4531-44.766 11.156-67.922 11.156s-46.078-3.7031-67.922-11.156c-14.531-4.9219-28.312-10.922-41.531-17.625-12.375 52.078-52.078 90.938-67.219 99.469h355.78c-15.234-8.5312-55.312-47.766-67.453-100.55z" fill="#193c37"/>
</svg>