<svg version="1.1" xmlns="http://www.w3.org/2000/svg" viewBox="30 30 1140 1140">
 <path d="m600 1170c-314.29 0-570-255.71-570-570s255.71-570 570-570 570 255.71 570 570-255.71 570-570 570zm0-1075.7c-278.86 0-505.74 226.87-505.74 505.69 0 278.86 226.87 505.74 505.74 505.74s505.74-226.87 505.74-505.74c0-278.81-226.87-505.69-505.74-505.69z" fill="#193c37"/>
 <path d="m600 150.94c-249.19 0-449.11 199.92-449.11 449.11 0 249.19 199.92 449.11 449.11 449.11s449.06-199.92 449.06-449.11c0.046875-249.19-199.87-449.11-449.06-449.11zm-40.969 316.45c8.25 28.922 13.828 57.844 16.875 86.531h104.06c10.828 0 18.938 9.9375 16.734 20.578l-8.1094 39c-1.6406 7.9219-8.625 13.594-16.734 13.594h-94.266c-2.3906 47.297-11.812 93-28.734 135.47h225.94c9.4219 0 17.062 7.6406 17.062 17.062v57.328c0 9.4219-7.6406 17.062-17.062 17.062h-379.08c-10.781 0-18.844-9.8438-16.734-20.438l11.391-57.328c1.5938-7.9688 8.625-13.734 16.734-13.734h41.016l3.5625-6.9375c20.156-38.953 31.641-82.641 34.547-128.53h-45.094c-10.828 0-18.938-9.9375-16.734-20.578l8.1094-39c1.6406-7.9219 8.625-13.594 16.734-13.594h34.312c-2.6719-20.391-6.6094-40.922-12.469-61.453-4.7344-16.734-7.1719-32.672-7.1719-47.25 0-90.562 72.047-161.48 163.97-161.48 84.047 0 153.52 63.562 162.89 145.13 1.1719 10.031-6.9375 18.844-17.062 18.844h-57.938c-8.4375 0-15.188-6.2344-16.875-14.484-6.75-33.047-36-57.984-71.062-57.984-41.344 0-72.469 30.094-72.469 69.984 0 6.1406 1.2188 13.641 3.6562 22.172z" fill="#193c37"/>
</svg>