<svg version="1.1" xmlns="http://www.w3.org/2000/svg" viewBox="74.22 169.32 1051.57 861.38">
 <path d="m837.52 337.6-216.79-161.29c-12.469-9.2812-28.969-9.2812-41.438 0l-481.82 358.4c-25.547 18.984-30.844 55.078-11.859 80.578 18.984 25.547 55.078 30.797 80.578 11.812l413.06-307.26c12.469-9.2812 28.969-9.2812 41.438 0l413.11 307.31c25.547 18.984 61.594 13.688 80.578-11.812 18.984-25.547 13.688-61.594-11.859-80.578l-153-113.81 0.046875-147.28c0-19.125-15.609-34.734-34.734-34.734h-42.609c-19.125 0-34.734 15.609-34.734 34.734zm133.36 301.64v354.52c0 20.297-16.594 36.891-36.891 36.891l-184.03 0.046874v-200.95c0-41.719-34.125-75.891-75.891-75.891h-148.13c-41.719 0-75.891 34.172-75.891 75.891v200.95h-184.03c-20.297 0-36.891-16.594-36.891-36.891v-354.56l370.87-275.86z" fill="#193c37" fill-rule="evenodd"/>
</svg>