<svg version="1.1" xmlns="http://www.w3.org/2000/svg" viewBox="84.33 104.77 1061.17 992.12">
 <path d="m1106.2 324.38h-1003.1c-4.9727 0-9.7422 1.9766-13.258 5.4922-3.5156 3.5156-5.4922 8.2852-5.4922 13.258v735c0 4.9727 1.9766 9.7422 5.4922 13.258 3.5156 3.5156 8.2852 5.4922 13.258 5.4922h1003.1c4.9727 0 9.7422-1.9766 13.258-5.4922 3.5156-3.5156 5.4922-8.2852 5.4922-13.258v-735c0-4.9727-1.9766-9.7422-5.4922-13.258-3.5156-3.5156-8.2852-5.4922-13.258-5.4922zm-984.38 196.88h253.12v106.88h-253.12zm0 538.12v-393.75h253.12v391.88c-0.09375 0.62109-0.09375 1.2539 0 1.875zm393.75 0h-103.12c0.09375-0.62109 0.09375-1.2539 0-1.875v-391.88h103.12zm37.5 0v-393.75h93.75v391.88c-0.09375 0.62109-0.09375 1.2539 0 1.875zm240 0h-108.94c0.09375-0.62109 0.09375-1.2539 0-1.875v-391.88h108.75zm131.25 0h-93.75v-393.75h93.75zm0-431.25h-511.88v-106.88h511.88zm163.12 431.25h-125.62v-393.75h125.62zm0-431.25h-125.62v-106.88h125.62zm0-144.38h-965.62v-121.88h965.62z" fill="#193c37"/>
 <path d="m322.5 588.75h-150c-6.6992 0-12.887-3.5742-16.238-9.375-3.3477-5.8008-3.3477-12.949 0-18.75 3.3516-5.8008 9.5391-9.375 16.238-9.375h150c6.6992 0 12.887 3.5742 16.238 9.375 3.3477 5.8008 3.3477 12.949 0 18.75-3.3516 5.8008-9.5391 9.375-16.238 9.375z" fill="#193c37"/>
 <path d="m322.5 780h-150c-6.6992 0-12.887-3.5742-16.238-9.375-3.3477-5.8008-3.3477-12.949 0-18.75 3.3516-5.8008 9.5391-9.375 16.238-9.375h150c6.6992 0 12.887 3.5742 16.238 9.375 3.3477 5.8008 3.3477 12.949 0 18.75-3.3516 5.8008-9.5391 9.375-16.238 9.375z" fill="#193c37"/>
 <path d="m322.5 877.5h-150c-6.6992 0-12.887-3.5742-16.238-9.375-3.3477-5.8008-3.3477-12.949 0-18.75 3.3516-5.8008 9.5391-9.375 16.238-9.375h150c6.6992 0 12.887 3.5742 16.238 9.375 3.3477 5.8008 3.3477 12.949 0 18.75-3.3516 5.8008-9.5391 9.375-16.238 9.375z" fill="#193c37"/>
 <path d="m322.5 973.12h-150c-6.6992 0-12.887-3.5742-16.238-9.375-3.3477-5.8008-3.3477-12.949 0-18.75 3.3516-5.8008 9.5391-9.375 16.238-9.375h150c6.6992 0 12.887 3.5742 16.238 9.375 3.3477 5.8008 3.3477 12.949 0 18.75-3.3516 5.8008-9.5391 9.375-16.238 9.375z" fill="#193c37"/>
 <path d="m493.12 598.12h-33.75c-6.6992 0-12.887-3.5742-16.238-9.375-3.3477-5.8008-3.3477-12.949 0-18.75 3.3516-5.8008 9.5391-9.375 16.238-9.375h33.75c6.6992 0 12.887 3.5742 16.238 9.375 3.3477 5.8008 3.3477 12.949 0 18.75-3.3516 5.8008-9.5391 9.375-16.238 9.375z" fill="#193c37"/>
 <path d="m624.38 598.12h-33.75c-6.6992 0-12.887-3.5742-16.238-9.375-3.3477-5.8008-3.3477-12.949 0-18.75 3.3516-5.8008 9.5391-9.375 16.238-9.375h33.75c6.6992 0 12.887 3.5742 16.238 9.375 3.3477 5.8008 3.3477 12.949 0 18.75-3.3516 5.8008-9.5391 9.375-16.238 9.375z" fill="#193c37"/>
 <path d="m755.62 598.12h-35.625c-6.6992 0-12.887-3.5742-16.238-9.375-3.3477-5.8008-3.3477-12.949 0-18.75 3.3516-5.8008 9.5391-9.375 16.238-9.375h35.625c6.6992 0 12.887 3.5742 16.238 9.375 3.3477 5.8008 3.3477 12.949 0 18.75-3.3516 5.8008-9.5391 9.375-16.238 9.375z" fill="#193c37"/>
 <path d="m886.88 598.12h-35.625c-6.6992 0-12.887-3.5742-16.238-9.375-3.3477-5.8008-3.3477-12.949 0-18.75 3.3516-5.8008 9.5391-9.375 16.238-9.375h35.625c6.6992 0 12.887 3.5742 16.238 9.375 3.3477 5.8008 3.3477 12.949 0 18.75-3.3516 5.8008-9.5391 9.375-16.238 9.375z" fill="#193c37"/>
 <path d="m1036.9 598.12h-35.625c-6.6992 0-12.887-3.5742-16.238-9.375-3.3477-5.8008-3.3477-12.949 0-18.75 3.3516-5.8008 9.5391-9.375 16.238-9.375h35.625c6.6992 0 12.887 3.5742 16.238 9.375 3.3477 5.8008 3.3477 12.949 0 18.75-3.3516 5.8008-9.5391 9.375-16.238 9.375z" fill="#193c37"/>
 <path d="m304.88 170.81-123.75-63.75c-1.3633-0.69141-2.8125-1.1992-4.3125-1.5-1.4297-0.19531-2.8828-0.19531-4.3125 0-1.6133-0.27344-3.2617-0.27344-4.875 0-1.2773 0.25781-2.4883 0.76562-3.5625 1.5-2.3672 1.293-4.3672 3.1641-5.8125 5.4375-0.77344 0.83203-1.4062 1.7812-1.875 2.8125-0.69141 1.3633-1.1992 2.8125-1.5 4.3125-0.19531 1.4297-0.19531 2.8828 0 4.3125v178.12c0 6.6992 3.5742 12.887 9.375 16.238 5.8008 3.3477 12.949 3.3477 18.75 0 5.8008-3.3516 9.375-9.5391 9.375-16.238v-37.5l112.5-58.312c3.168-1.6797 5.7891-4.2344 7.5508-7.3555 1.7617-3.125 2.5898-6.6875 2.3867-10.27 0.23828-3.6133-0.57031-7.2148-2.3359-10.375-1.7617-3.1602-4.4023-5.7461-7.6016-7.4375zm-113.62 51.562v-67.875l65.812 33.938z" fill="#193c37"/>
 <path d="m736.12 170.81-123.75-63.75c-1.3633-0.69141-2.8125-1.1992-4.3125-1.5-1.4297-0.19531-2.8828-0.19531-4.3125 0-1.6133-0.27344-3.2617-0.27344-4.875 0-1.2773 0.25781-2.4883 0.76562-3.5625 1.5-2.0234 0.98828-3.8125 2.3945-5.25 4.125-0.77344 0.83203-1.4062 1.7812-1.875 2.8125-0.69141 1.3633-1.1992 2.8125-1.5 4.3125-0.19531 1.4297-0.19531 2.8828 0 4.3125v178.12c0 6.6992 3.5742 12.887 9.375 16.238 5.8008 3.3477 12.949 3.3477 18.75 0 5.8008-3.3516 9.375-9.5391 9.375-16.238v-37.5l111.94-57c3.168-1.6797 5.7891-4.2344 7.5508-7.3555 1.7617-3.125 2.5898-6.6875 2.3867-10.27 0.23828-3.6133-0.57031-7.2148-2.3359-10.375-1.7617-3.1602-4.4023-5.7461-7.6016-7.4375zm-113.62 51.562v-67.875l65.812 33.938z" fill="#193c37"/>
 <path d="m1135.3 170.81-122.81-62.625-2.0625-1.125c-2.5547-1.3086-5.3789-2.0156-8.25-2.0625-1.6133-0.27344-3.2617-0.27344-4.875 0-1.2773 0.25781-2.4883 0.76562-3.5625 1.5-1.4375 0.89844-2.7578 1.9688-3.9375 3.1875-1.1445 1.2188-2.0938 2.6133-2.8125 4.125-1.3086 2.5547-2.0156 5.3789-2.0625 8.25v178.12c0 6.6992 3.5742 12.887 9.375 16.238 5.8008 3.3477 12.949 3.3477 18.75 0 5.8008-3.3516 9.375-9.5391 9.375-16.238v-37.5l112.88-56.438c3.2031-1.6523 5.8633-4.1953 7.6562-7.3203 1.7969-3.1289 2.6523-6.7031 2.4688-10.305 0.22266-3.6328-0.61719-7.25-2.4141-10.41-1.7969-3.1641-4.4766-5.7344-7.7109-7.4023zm-115.31 51.75v-68.25l67.5 34.125z" fill="#193c37"/>
</svg>