<svg version="1.1" xmlns="http://www.w3.org/2000/svg" viewBox="209.25 60 781.52 1080.03">
 <path d="m515.21 133.97h-65.203v111.75h300v-111.75h-65.203c-4.0312 0-7.875-1.5938-10.734-4.4531-2.8594-2.8125-4.4531-6.7031-4.4531-10.734-0.28125-15.844-7.4531-30.75-19.641-40.922-29.062-23.812-70.922-23.812-99.984 0-12.188 10.172-19.312 25.078-19.594 40.922 0 8.3906-6.7969 15.188-15.188 15.188zm-95.625 125.44h-128.72v796.26h618.28v-796.26h-128.72v1.5469-0.046875c0 4.0312-1.5938 7.9219-4.4531 10.734-2.8594 2.8594-6.7031 4.4531-10.734 4.4531h-330.47c-4.0312 0-7.875-1.5938-10.734-4.4531-2.8594-2.8125-4.4531-6.7031-4.4531-10.734v-1.5469zm360.79-30.375v-54h184.55c14.25 0.046875 25.781 11.578 25.828 25.828v913.31c-0.046875 14.25-11.578 25.781-25.828 25.828h-729.84c-14.25-0.046875-25.781-11.578-25.828-25.828v-913.26c0.046875-14.25 11.578-25.781 25.828-25.828h184.5v54h-143.9c-8.3906 0-15.141 6.7969-15.141 15.141v826.6c0 8.3906 6.7969 15.188 15.141 15.188h648.66c8.3906 0 15.141-6.7969 15.141-15.188v-826.6c0-8.3906-6.75-15.188-15.141-15.188zm-427.6 633.19c-8.3438 0-15.141-6.7969-15.141-15.188s6.7969-15.188 15.141-15.188h494.44c8.3438 0 15.141 6.7969 15.141 15.188s-6.7969 15.188-15.141 15.188zm0 105.61c-8.3438 0-15.141-6.7969-15.141-15.188s6.7969-15.188 15.141-15.188h494.44c8.3438 0 15.141 6.7969 15.141 15.188s-6.7969 15.188-15.141 15.188zm365.39-520.22c56.391 56.344 65.109 144.71 20.859 211.03-44.297 66.328-129.28 92.109-202.92 61.594-73.688-30.516-115.55-108.8-100.03-186.98 15.562-78.234 84.188-134.58 163.92-134.58 44.344-0.046875 86.859 17.531 118.17 48.938zm-118.17-79.312c61.406 0 119.3 28.594 156.66 77.297 37.406 48.703 49.969 112.03 34.078 171.32s-58.453 107.86-115.17 131.34c-56.719 23.48-121.13 19.266-174.32-11.438-53.156-30.703-89.016-84.375-97.031-145.26-8.0156-60.844 12.75-122.02 56.156-165.42 36.984-37.078 87.234-57.891 139.64-57.844zm-83.391 214.69c-3.0938-2.5312-5.0625-6.1875-5.4844-10.172-0.42188-4.0312 0.75-8.0156 3.2812-11.109 5.2969-6.4688 14.812-7.4531 21.328-2.2031l41.016 33.234 86.484-84.891v-0.046875c5.9531-5.7188 15.422-5.5781 21.234 0.32812s5.8125 15.422-0.046876 21.281l-96.141 94.359h0.046874c-5.4844 5.4375-14.203 5.8594-20.156 0.98438z" fill="#193c37" fill-rule="evenodd"/>
</svg>