<svg version="1.1" xmlns="http://www.w3.org/2000/svg" viewBox="198.55 41.47 802.95 1117.17">
 <path d="m757.08 216h-314.16c-9.6562 0-17.438-7.8281-17.438-17.438l-0.046875-69.844c0-9.6562 7.8281-17.438 17.438-17.438h71.578c8.1094-39.797 43.359-69.797 85.5-69.797s77.391 30.047 85.5 69.797h71.625c9.6562 0 17.438 7.8281 17.438 17.438v69.797c0.046875 9.6562-7.7812 17.484-17.438 17.484zm-296.72-34.922h279.28v-34.875h-69.797c-9.6562 0-17.438-7.8281-17.438-17.438 0-28.875-23.484-52.359-52.359-52.359s-52.359 23.484-52.359 52.359c0 9.6562-7.8281 17.438-17.438 17.438h-69.797z" fill="#193c37"/>
 <path d="m984 1158.6h-768c-9.6562 0-17.438-7.8281-17.438-17.438v-977.48c0-9.6562 7.8281-17.438 17.438-17.438h226.92c9.6562 0 17.438 7.8281 17.438 17.438 0 9.6562-7.8281 17.438-17.438 17.438h-209.44v942.56h733.08v-942.56h-209.44c-9.6562 0-17.438-7.8281-17.438-17.438 0-9.6562 7.8281-17.438 17.438-17.438h226.92c9.6562 0 17.438 7.8281 17.438 17.438v977.44c-0.046875 9.6562-7.8281 17.484-17.484 17.484z" fill="#193c37"/>
 <path d="m320.72 442.92h-34.922c-9.6562 0-17.438-7.8281-17.438-17.438 0-9.6562 7.8281-17.438 17.438-17.438h34.922c9.6094 0 17.438-7.8281 17.438-17.438s-7.8281-17.438-17.438-17.438c-28.875 0-52.359-23.484-52.359-52.359s23.484-52.359 52.359-52.359h34.922c9.6562 0 17.438 7.8281 17.438 17.438 0 9.6562-7.8281 17.438-17.438 17.438h-34.922c-9.6094 0-17.438 7.8281-17.438 17.438s7.8281 17.438 17.438 17.438c28.875 0 52.359 23.484 52.359 52.359s-23.484 52.359-52.359 52.359z" fill="#193c37"/>
 <path d="m512.72 442.92h-17.438c-48.141 0-87.281-39.141-87.281-87.281s39.141-87.281 87.281-87.281h17.438c9.6562 0 17.438 7.8281 17.438 17.438 0 9.6562-7.8281 17.438-17.438 17.438h-17.438c-28.875 0-52.359 23.484-52.359 52.359s23.484 52.359 52.359 52.359h17.438c9.6562 0 17.438 7.8281 17.438 17.438 0.046875 9.7031-7.7812 17.531-17.438 17.531z" fill="#193c37"/>
 <path d="m608.72 442.92c-33.703 0-61.078-27.422-61.078-61.078v-52.359c0-33.703 27.422-61.078 61.078-61.078 33.703 0 61.078 27.422 61.078 61.078v52.359c0 33.656-27.375 61.078-61.078 61.078zm0-139.64c-14.438 0-26.203 11.766-26.203 26.203v52.359c0 14.438 11.766 26.203 26.203 26.203s26.203-11.766 26.203-26.203v-52.359c0-14.484-11.766-26.203-26.203-26.203z" fill="#193c37"/>
 <path d="m792 442.92c-4.4531 0-8.9531-1.6875-12.328-5.1094l-40.031-40.031v27.656c0 9.6562-7.8281 17.438-17.438 17.438-9.6562 0-17.438-7.8281-17.438-17.438v-69.984l-0.046875-69.656c0-9.6562 7.8281-17.438 17.438-17.438h34.922c28.875 0 52.359 23.484 52.359 52.359 0 26.578-19.875 48.562-45.562 51.938l40.453 40.453c6.7969 6.7969 6.7969 17.859 0 24.703-3.375 3.375-7.875 5.1094-12.328 5.1094zm-52.359-104.72h17.438c9.6094 0 17.438-7.8281 17.438-17.438s-7.8281-17.438-17.438-17.438h-17.438z" fill="#193c37"/>
 <path d="m914.21 442.92h-52.359c-9.6562 0-17.438-7.8281-17.438-17.438v-139.64c0-9.6562 7.8281-17.438 17.438-17.438h52.359c9.6562 0 17.438 7.8281 17.438 17.438 0 9.6562-7.8281 17.438-17.438 17.438h-34.922v104.72h34.922c9.6562 0 17.438 7.8281 17.438 17.438 0 9.6562-7.8281 17.484-17.438 17.484z" fill="#193c37"/>
 <path d="m914.21 373.08h-52.359c-9.6562 0-17.438-7.8281-17.438-17.438 0-9.6562 7.8281-17.438 17.438-17.438h52.359c9.6562 0 17.438 7.8281 17.438 17.438 0 9.6562-7.8281 17.438-17.438 17.438z" fill="#193c37"/>
 <path d="m914.21 1053.8h-628.4c-9.6562 0-17.438-7.8281-17.438-17.438v-523.64c0-9.6562 7.8281-17.438 17.438-17.438h628.36c9.6562 0 17.438 7.8281 17.438 17.438v523.64c0.046875 9.6562-7.7812 17.438-17.391 17.438zm-610.92-34.875h593.44v-488.72h-593.44z" fill="#193c37"/>
 <path d="m914.21 966.56h-628.4c-9.6562 0-17.438-7.8281-17.438-17.438 0-9.6562 7.8281-17.438 17.438-17.438h628.36c9.6562 0 17.438 7.8281 17.438 17.438 0.046875 9.6094-7.7812 17.438-17.391 17.438z" fill="#193c37"/>
 <path d="m914.21 879.28h-628.4c-9.6562 0-17.438-7.8281-17.438-17.438 0-9.6562 7.8281-17.438 17.438-17.438h628.36c9.6562 0 17.438 7.8281 17.438 17.438 0.046875 9.6094-7.7812 17.438-17.391 17.438z" fill="#193c37"/>
 <path d="m914.21 792h-628.4c-9.6562 0-17.438-7.8281-17.438-17.438 0-9.6562 7.8281-17.438 17.438-17.438h628.36c9.6562 0 17.438 7.8281 17.438 17.438 0.046875 9.6094-7.7812 17.438-17.391 17.438z" fill="#193c37"/>
 <path d="m914.21 704.72h-628.4c-9.6562 0-17.438-7.8281-17.438-17.438 0-9.6562 7.8281-17.438 17.438-17.438h628.36c9.6562 0 17.438 7.8281 17.438 17.438 0.046875 9.6094-7.7812 17.438-17.391 17.438z" fill="#193c37"/>
 <path d="m914.21 617.44h-628.4c-9.6562 0-17.438-7.8281-17.438-17.438 0-9.6562 7.8281-17.438 17.438-17.438h628.36c9.6562 0 17.438 7.8281 17.438 17.438 0.046875 9.6562-7.7812 17.438-17.391 17.438z" fill="#193c37"/>
 <path d="m600 1053.8c-9.6562 0-17.438-7.8281-17.438-17.438v-523.64c0-9.6562 7.8281-17.438 17.438-17.438 9.6562 0 17.438 7.8281 17.438 17.438v523.64c0 9.6562-7.7812 17.438-17.438 17.438z" fill="#193c37"/>
 <path d="m704.72 1053.8c-9.6562 0-17.438-7.8281-17.438-17.438v-523.64c0-9.6562 7.8281-17.438 17.438-17.438 9.6562 0 17.438 7.8281 17.438 17.438v523.64c0.046875 9.6562-7.7812 17.438-17.438 17.438z" fill="#193c37"/>
 <path d="m809.44 1053.8c-9.6562 0-17.438-7.8281-17.438-17.438v-523.64c0-9.6562 7.8281-17.438 17.438-17.438 9.6562 0 17.438 7.8281 17.438 17.438v523.64c0.046875 9.6562-7.7812 17.438-17.438 17.438z" fill="#193c37"/>
 <path d="m390.56 1053.8c-9.6562 0-17.438-7.8281-17.438-17.438l-0.046875-523.64c0-9.6562 7.8281-17.438 17.438-17.438 9.6562 0 17.438 7.8281 17.438 17.438v523.64c0.046875 9.6562-7.7812 17.438-17.391 17.438z" fill="#193c37"/>
 <path d="m495.28 1053.8c-9.6562 0-17.438-7.8281-17.438-17.438l-0.046875-523.64c0-9.6562 7.8281-17.438 17.438-17.438 9.6562 0 17.438 7.8281 17.438 17.438v523.64c0.046875 9.6562-7.7812 17.438-17.391 17.438z" fill="#193c37"/>
</svg>